<svg width="222" height="107" viewBox="0 0 222 107" fill="none" xmlns="http://www.w3.org/2000/svg">
<path d="M29.192 99.1544C27.219 99.1544 25.621 97.5554 25.621 95.5834V81.3755C25.621 74.1644 29.63 67.6834 36.083 64.4614L45.978 59.5265C47.742 58.6475 49.887 59.3614 50.767 61.1254C51.647 62.8894 50.93 65.0355 49.165 65.9145L39.271 70.8494C35.256 72.8554 32.762 76.8885 32.762 81.3755V95.5834C32.763 97.5554 31.165 99.1544 29.192 99.1544Z" fill="#966DCB"/>
<path d="M43.348 106.069C41.376 106.069 39.777 104.47 39.777 102.498V90.1886C39.777 84.4046 42.661 79.0556 47.492 75.8776L54.414 71.3186C56.058 70.2356 58.274 70.6886 59.36 72.3366C60.445 73.9846 59.988 76.1976 58.342 77.2836L51.418 81.8426C48.601 83.6956 46.919 86.8146 46.919 90.1886V102.498C46.919 104.469 45.321 106.069 43.348 106.069Z" fill="#966DCB"/>
<path d="M191.816 99.1544C189.843 99.1544 188.245 97.5554 188.245 95.5834V81.3755C188.245 76.8885 185.751 72.8554 181.735 70.8494L171.844 65.9145C170.078 65.0355 169.363 62.8904 170.242 61.1254C171.124 59.3614 173.271 58.6475 175.031 59.5265L184.924 64.4614C191.378 67.6834 195.387 74.1644 195.387 81.3755V95.5834C195.386 97.5554 193.788 99.1544 191.816 99.1544Z" fill="#966DCB"/>
<path d="M177.66 106.069C175.687 106.069 174.089 104.47 174.089 102.498V90.1885C174.089 86.8155 172.407 83.6955 169.591 81.8425L162.666 77.2835C161.02 76.1975 160.563 73.9845 161.648 72.3365C162.732 70.6885 164.947 70.2345 166.594 71.3185L173.518 75.8775C178.347 79.0555 181.231 84.4045 181.231 90.1885V102.498C181.23 104.469 179.632 106.069 177.66 106.069Z" fill="#966DCB"/>
<path d="M56.2386 51.2815L54.4296 62.2075C54.4296 62.2075 42.0986 60.7795 33.2436 52.4475C31.5296 50.8285 29.9346 48.9245 28.6016 46.7345L35.3856 40.2595C35.3856 40.2595 37.2426 43.4725 41.6696 46.4485C45.0026 48.6635 49.7636 50.7815 56.2386 51.2815Z" fill="#966DCB"/>
<path d="M41.6696 46.4495C40.4076 47.8775 38.9326 49.1635 37.3136 50.2345C36.1236 51.0205 34.7426 51.7815 33.2426 52.4485C31.5286 50.8295 29.9336 48.9255 28.6006 46.7355L35.3846 40.2605C35.3846 40.2605 37.2426 43.4735 41.6696 46.4495Z" fill="#764AB0"/>
<path d="M43.3976 39.9175C37.9686 32.2485 23.0646 30.0575 23.0646 30.0575C24.5766 28.5475 29.2996 23.1715 29.2436 15.0615C29.2296 13.0015 31.3326 11.5905 33.1986 12.4615C38.2526 14.8205 45.8346 20.1045 45.7146 30.5505C45.6606 33.8405 44.8506 37.0285 43.3976 39.9175Z" fill="#5A2D95"/>
<path d="M45.7165 30.5485C45.6925 32.2865 45.4545 34.0005 45.0026 35.6665C40.7225 30.9615 34.4545 28.8015 29.9005 27.8125C27.8645 27.3705 26.7566 25.2075 27.5726 23.2905C28.5416 21.0165 29.2585 18.2475 29.2435 15.0515C29.2195 13.0045 31.3385 11.5995 33.1945 12.4565C38.2425 14.8135 45.8355 20.0985 45.7165 30.5485Z" fill="#764AB0"/>
<path d="M43.3975 39.9174C41.7055 43.2684 39.1585 46.1564 35.9685 48.2594C33.7825 49.7144 31.0645 51.0384 27.8945 51.8344C11.6925 55.8654 -3.73648 41.2844 0.845522 25.2334C1.83552 21.8174 3.74852 18.3354 7.05652 15.0584C8.63152 13.4984 11.3035 14.3274 11.7755 16.4934C12.2485 18.6614 13.0765 21.2724 14.5295 23.7074C16.4185 26.8784 19.5305 29.1544 23.0635 30.0574C23.0635 30.0574 37.9685 32.2474 43.3975 39.9174Z" fill="#966DCB"/>
<path d="M26.1295 47.1233C25.0925 50.1743 20.4555 51.3573 15.7715 49.7653C11.0875 48.1733 8.13052 44.4103 9.16752 41.3593C10.2045 38.3083 14.8415 37.1253 19.5255 38.7173C24.2095 40.3093 27.1665 44.0723 26.1295 47.1233Z" fill="#EADEFA"/>
<path d="M165.402 53.3352L167.211 64.2612C167.211 64.2612 179.542 62.8332 188.397 54.5012C190.111 52.8822 191.706 50.9782 193.039 48.7882L186.255 42.3132C186.255 42.3132 184.398 45.5262 179.971 48.5022C176.638 50.7172 171.877 52.8352 165.402 53.3352Z" fill="#966DCB"/>
<path d="M179.971 48.5032C181.233 49.9312 182.708 51.2172 184.327 52.2882C185.517 53.0742 186.898 53.8352 188.398 54.5022C190.112 52.8832 191.707 50.9792 193.04 48.7892L186.256 42.3142C186.256 42.3142 184.398 45.5272 179.971 48.5032Z" fill="#764AB0"/>
<path d="M178.243 41.9712C183.672 34.3022 198.576 32.1112 198.576 32.1112C197.064 30.6012 192.341 25.2252 192.397 17.1152C192.411 15.0552 190.308 13.6442 188.442 14.5152C183.388 16.8742 175.806 22.1582 175.926 32.6042C175.98 35.8942 176.79 39.0822 178.243 41.9712Z" fill="#5A2D95"/>
<path d="M175.924 32.6022C175.948 34.3402 176.186 36.0542 176.638 37.7202C180.918 33.0152 187.186 30.8552 191.74 29.8662C193.776 29.4242 194.884 27.2612 194.068 25.3442C193.099 23.0702 192.382 20.3012 192.397 17.1052C192.421 15.0582 190.302 13.6532 188.445 14.5102C183.398 16.8672 175.805 22.1522 175.924 32.6022Z" fill="#764AB0"/>
<path d="M178.243 41.9711C179.935 45.3221 182.482 48.2101 185.672 50.3131C187.858 51.7681 190.576 53.0921 193.746 53.8881C209.948 57.9191 225.377 43.3381 220.795 27.2871C219.805 23.8711 217.892 20.3891 214.584 17.1121C213.009 15.5521 210.337 16.3811 209.865 18.5471C209.392 20.7151 208.564 23.3261 207.111 25.7611C205.222 28.9321 202.11 31.2081 198.577 32.1111C198.577 32.1111 183.672 34.3011 178.243 41.9711Z" fill="#966DCB"/>
<path d="M195.511 49.1771C196.548 52.2281 201.185 53.4111 205.869 51.8191C210.553 50.2271 213.51 46.464 212.473 43.413C211.436 40.362 206.799 39.179 202.115 40.771C197.431 42.363 194.474 46.1261 195.511 49.1771Z" fill="#EADEFA"/>
<path d="M153.522 9.34546C143.261 3.97546 129.342 0.158447 110.504 0.158447C91.6659 0.158447 77.747 3.97546 67.486 9.34546C38.686 24.4165 34.9829 63.1394 60.0239 83.8644C81.1599 101.358 110.503 100.339 110.503 100.339C110.503 100.339 139.846 101.358 160.982 83.8644C186.024 63.1384 182.322 24.4165 153.522 9.34546Z" fill="#A881DB"/>
<path d="M153.6 89.0914C133.628 101.136 110.49 100.327 110.49 100.327C110.49 100.327 87.3759 101.136 67.4039 89.0914C61.4529 85.4734 58.5959 78.2844 60.8579 71.6904C61.8339 68.9054 63.4529 65.9294 66.1189 63.1214C66.1189 63.1214 66.1429 63.1214 66.1429 63.0974C72.7129 56.1944 85.5909 50.2434 110.491 50.2434C135.414 50.2434 148.292 56.1944 154.862 63.0974C154.862 63.1214 154.886 63.1214 154.886 63.1214C157.552 65.9304 159.171 68.9054 160.147 71.6904C162.407 78.2834 159.575 85.4734 153.6 89.0914Z" fill="#B298D3"/>
<path d="M156.29 69.3334C156.29 83.1164 135.795 94.3044 110.514 94.3044C85.2099 94.3044 64.7139 83.1164 64.7139 69.3334C64.7139 67.1914 65.2139 65.1204 66.1189 63.1204C66.1189 63.1204 66.1429 63.1204 66.1429 63.0964C72.7129 56.1934 85.5909 50.2424 110.491 50.2424C135.414 50.2424 148.292 56.1934 154.862 63.0964C154.862 63.1204 154.886 63.1204 154.886 63.1204C155.79 65.1204 156.29 67.1914 156.29 69.3334Z" fill="#EADEFA"/>
<path d="M79.9979 54.5915C79.6769 64.7525 81.3359 84.7925 96.9859 99.3105C99.6269 99.7115 101.996 99.9605 103.988 100.112C84.4279 85.8685 83.3459 63.0135 83.8749 53.3535C82.5079 53.7375 81.2179 54.1515 79.9979 54.5915Z" fill="#966DCB"/>
<path d="M119.755 99.8605C121.89 99.6345 124.311 99.3015 126.933 98.8205C141.642 84.7815 143.613 65.8415 143.428 55.5445C142.222 55.0355 140.936 54.5525 139.566 54.1025C139.992 64.0875 138.509 85.9555 119.755 99.8605Z" fill="#966DCB"/>
<path d="M113.617 50.2815C112.597 50.2605 111.557 50.2485 110.493 50.2485C110.253 50.2485 110.026 50.2545 109.788 50.2565V100.344C110.241 100.342 110.493 100.334 110.493 100.334C110.493 100.334 111.632 100.373 113.617 100.304V50.2815Z" fill="#966DCB"/>
<path d="M83.8749 53.3525C82.5629 53.7215 81.3289 54.1215 80.1529 54.5415C80.1019 54.5595 80.0499 54.5785 79.9989 54.5965C79.7309 63.0805 80.8779 78.4386 90.3589 91.7296C92.2809 92.2446 94.2629 92.7015 96.3249 93.0675C84.1809 79.1985 83.4259 61.5425 83.8749 53.3525Z" fill="#C3ACE2"/>
<path d="M139.566 54.1016C139.923 62.4586 138.901 79.1226 127.581 92.4916C129.703 92.0256 131.733 91.4686 133.683 90.8416C142.267 78.2416 143.579 63.9886 143.427 55.5436C142.221 55.0336 140.935 54.5516 139.566 54.1016Z" fill="#C3ACE2"/>
<path d="M113.617 94.2185V50.2896C113.023 50.2766 112.422 50.2675 111.813 50.2625C111.372 50.2585 110.943 50.2485 110.493 50.2485C110.253 50.2485 110.026 50.2545 109.788 50.2565V94.2856C110.032 94.2876 110.268 94.3055 110.513 94.3055C111.562 94.3045 112.587 94.2565 113.617 94.2185Z" fill="#C3ACE2"/>
</svg>
