<svg width="233" height="110" viewBox="0 0 233 110" fill="none" xmlns="http://www.w3.org/2000/svg">
<path d="M35.192 102.154C33.219 102.154 31.621 100.555 31.621 98.5834V84.3755C31.621 77.1644 35.63 70.6834 42.083 67.4614L51.978 62.5265C53.742 61.6475 55.887 62.3614 56.767 64.1254C57.647 65.8894 56.93 68.0355 55.165 68.9145L45.271 73.8494C41.256 75.8554 38.762 79.8885 38.762 84.3755V98.5834C38.763 100.555 37.165 102.154 35.192 102.154Z" fill="#00BCA5"/>
<path d="M49.348 109.069C47.376 109.069 45.777 107.47 45.777 105.498V93.1886C45.777 87.4046 48.661 82.0556 53.492 78.8776L60.414 74.3186C62.058 73.2356 64.274 73.6886 65.36 75.3366C66.445 76.9846 65.988 79.1976 64.342 80.2836L57.418 84.8426C54.601 86.6956 52.919 89.8146 52.919 93.1886V105.498C52.919 107.469 51.321 109.069 49.348 109.069Z" fill="#00BCA5"/>
<path d="M197.816 102.154C195.843 102.154 194.245 100.555 194.245 98.5834V84.3755C194.245 79.8885 191.751 75.8554 187.735 73.8494L177.844 68.9145C176.078 68.0355 175.363 65.8904 176.242 64.1254C177.124 62.3614 179.271 61.6475 181.031 62.5265L190.924 67.4614C197.378 70.6834 201.387 77.1644 201.387 84.3755V98.5834C201.386 100.555 199.788 102.154 197.816 102.154Z" fill="#00BCA5"/>
<path d="M183.66 109.069C181.687 109.069 180.089 107.47 180.089 105.498V93.1885C180.089 89.8155 178.407 86.6955 175.591 84.8425L168.666 80.2835C167.02 79.1975 166.563 76.9845 167.648 75.3365C168.732 73.6885 170.947 73.2345 172.594 74.3185L179.518 78.8775C184.347 82.0555 187.231 87.4045 187.231 93.1885V105.498C187.23 107.469 185.632 109.069 183.66 109.069Z" fill="#00BCA5"/>
<path d="M56.8599 39.7925L55.0509 50.7185C55.0509 50.7185 42.7199 49.2905 33.8649 40.9585C32.1509 39.3395 30.5559 37.4355 29.2229 35.2455L36.0069 28.7705C36.0069 28.7705 37.8639 31.9835 42.2909 34.9595C45.6239 37.1745 50.3849 39.2925 56.8599 39.7925Z" fill="#00BCA5"/>
<path d="M42.2909 34.9605C41.0289 36.3885 39.5539 37.6745 37.9349 38.7455C36.7449 39.5315 35.3639 40.2925 33.8639 40.9595C32.1499 39.3405 30.5549 37.4365 29.2219 35.2465L36.0059 28.7715C36.0059 28.7715 37.8639 31.9845 42.2909 34.9605Z" fill="#14A090"/>
<path d="M44.019 28.4285C38.59 20.7595 23.686 18.5685 23.686 18.5685C25.198 17.0585 29.921 11.6825 29.865 3.57249C29.851 1.51249 31.954 0.101485 33.82 0.972485C38.874 3.33149 46.456 8.6155 46.336 19.0615C46.282 22.3515 45.472 25.5395 44.019 28.4285Z" fill="#106F63"/>
<path d="M46.338 19.0595C46.314 20.7975 46.076 22.5115 45.624 24.1775C41.344 19.4725 35.076 17.3125 30.522 16.3235C28.486 15.8815 27.378 13.7185 28.194 11.8015C29.163 9.52752 29.88 6.7585 29.865 3.5625C29.841 1.5155 31.96 0.110502 33.816 0.967502C38.864 3.3245 46.457 8.60951 46.338 19.0595Z" fill="#14A090"/>
<path d="M44.019 28.4284C42.327 31.7794 39.78 34.6674 36.59 36.7704C34.404 38.2254 31.686 39.5494 28.516 40.3454C12.314 44.3764 -3.11502 29.7954 1.46698 13.7444C2.45698 10.3284 4.36998 6.84641 7.67798 3.56941C9.25298 2.00941 11.925 2.83841 12.397 5.00441C12.87 7.17241 13.698 9.7834 15.151 12.2184C17.04 15.3894 20.152 17.6654 23.685 18.5684C23.685 18.5684 38.59 20.7584 44.019 28.4284Z" fill="#00BCA5"/>
<path d="M26.751 35.6343C25.714 38.6853 21.077 39.8683 16.393 38.2763C11.709 36.6843 8.75198 32.9213 9.78898 29.8703C10.826 26.8193 15.463 25.6363 20.147 27.2283C24.831 28.8203 27.788 32.5833 26.751 35.6343Z" fill="#B5FFF6"/>
<path d="M176.148 39.7925L177.957 50.7185C177.957 50.7185 190.288 49.2905 199.143 40.9585C200.857 39.3395 202.452 37.4355 203.785 35.2455L197.001 28.7705C197.001 28.7705 195.144 31.9835 190.717 34.9595C187.384 37.1745 182.623 39.2925 176.148 39.7925Z" fill="#00BCA5"/>
<path d="M190.717 34.9605C191.979 36.3885 193.454 37.6745 195.073 38.7455C196.263 39.5315 197.644 40.2925 199.144 40.9595C200.858 39.3405 202.453 37.4365 203.786 35.2465L197.002 28.7715C197.002 28.7715 195.144 31.9845 190.717 34.9605Z" fill="#14A090"/>
<path d="M188.989 28.4285C194.418 20.7595 209.322 18.5685 209.322 18.5685C207.81 17.0585 203.087 11.6825 203.143 3.57249C203.157 1.51249 201.054 0.101485 199.188 0.972485C194.134 3.33149 186.552 8.6155 186.672 19.0615C186.726 22.3515 187.536 25.5395 188.989 28.4285Z" fill="#106F63"/>
<path d="M186.67 19.0595C186.694 20.7975 186.932 22.5115 187.384 24.1775C191.664 19.4725 197.932 17.3125 202.486 16.3235C204.522 15.8815 205.63 13.7185 204.814 11.8015C203.845 9.52752 203.128 6.7585 203.143 3.5625C203.167 1.5155 201.048 0.110502 199.191 0.967502C194.144 3.3245 186.551 8.60951 186.67 19.0595Z" fill="#14A090"/>
<path d="M188.989 28.4284C190.681 31.7794 193.228 34.6674 196.418 36.7704C198.604 38.2254 201.322 39.5494 204.492 40.3454C220.694 44.3764 236.123 29.7954 231.541 13.7444C230.551 10.3284 228.638 6.84641 225.33 3.56941C223.755 2.00941 221.083 2.83841 220.611 5.00441C220.138 7.17241 219.31 9.7834 217.857 12.2184C215.968 15.3894 212.856 17.6654 209.323 18.5684C209.323 18.5684 194.418 20.7584 188.989 28.4284Z" fill="#00BCA5"/>
<path d="M206.257 35.6343C207.294 38.6853 211.931 39.8683 216.615 38.2763C221.299 36.6843 224.256 32.9213 223.219 29.8703C222.182 26.8193 217.545 25.6363 212.861 27.2283C208.177 28.8203 205.22 32.5833 206.257 35.6343Z" fill="#B5FFF6"/>
<path d="M159.522 12.3455C149.261 6.97546 135.342 3.15845 116.504 3.15845C97.6659 3.15845 83.747 6.97546 73.486 12.3455C44.686 27.4165 40.9829 66.1394 66.0239 86.8644C87.1599 104.358 116.503 103.339 116.503 103.339C116.503 103.339 145.846 104.358 166.982 86.8644C192.024 66.1384 188.322 27.4165 159.522 12.3455Z" fill="#00BCA5"/>
<path d="M159.6 92.0914C139.628 104.136 116.49 103.327 116.49 103.327C116.49 103.327 93.3759 104.136 73.4039 92.0914C67.4529 88.4734 64.5959 81.2844 66.8579 74.6904C67.8339 71.9054 69.4529 68.9294 72.1189 66.1214C72.1189 66.1214 72.1429 66.1214 72.1429 66.0974C78.7129 59.1944 91.5909 53.2434 116.491 53.2434C141.414 53.2434 154.292 59.1944 160.862 66.0974C160.862 66.1214 160.886 66.1214 160.886 66.1214C163.552 68.9304 165.171 71.9054 166.147 74.6904C168.407 81.2834 165.575 88.4734 159.6 92.0914Z" fill="#94E3DA"/>
<path d="M162.29 72.3334C162.29 86.1164 141.795 97.3044 116.514 97.3044C91.2099 97.3044 70.7139 86.1164 70.7139 72.3334C70.7139 70.1914 71.2139 68.1204 72.1189 66.1204C72.1189 66.1204 72.1429 66.1204 72.1429 66.0964C78.7129 59.1934 91.5909 53.2424 116.491 53.2424C141.414 53.2424 154.292 59.1934 160.862 66.0964C160.862 66.1204 160.886 66.1204 160.886 66.1204C161.79 68.1204 162.29 70.1914 162.29 72.3334Z" fill="#B5FFF6"/>
<path d="M85.9979 57.5915C85.6769 67.7525 87.3359 87.7925 102.986 102.311C105.627 102.712 107.996 102.961 109.988 103.112C90.4279 88.8685 89.3459 66.0135 89.8749 56.3535C88.5079 56.7375 87.2179 57.1515 85.9979 57.5915Z" fill="#00BCA5"/>
<path d="M125.755 102.861C127.89 102.635 130.311 102.302 132.933 101.821C147.642 87.7815 149.613 68.8415 149.428 58.5445C148.222 58.0355 146.936 57.5525 145.566 57.1025C145.992 67.0875 144.509 88.9555 125.755 102.861Z" fill="#00BCA5"/>
<path d="M119.617 53.2815C118.597 53.2605 117.557 53.2485 116.493 53.2485C116.253 53.2485 116.026 53.2545 115.788 53.2565V103.344C116.241 103.342 116.493 103.334 116.493 103.334C116.493 103.334 117.632 103.373 119.617 103.304V53.2815Z" fill="#00BCA5"/>
<path d="M89.8749 56.3525C88.5629 56.7215 87.3289 57.1215 86.1529 57.5415C86.1019 57.5595 86.0499 57.5785 85.9989 57.5965C85.7309 66.0805 86.8779 81.4386 96.3589 94.7296C98.2809 95.2446 100.263 95.7015 102.325 96.0675C90.1809 82.1985 89.4259 64.5425 89.8749 56.3525Z" fill="#A2DED7"/>
<path d="M145.566 57.1016C145.923 65.4586 144.901 82.1226 133.581 95.4916C135.703 95.0256 137.733 94.4686 139.683 93.8416C148.267 81.2416 149.579 66.9886 149.427 58.5436C148.221 58.0336 146.935 57.5516 145.566 57.1016Z" fill="#A2DED7"/>
<path d="M119.617 97.2185V53.2896C119.023 53.2766 118.422 53.2675 117.813 53.2625C117.372 53.2585 116.943 53.2485 116.493 53.2485C116.253 53.2485 116.026 53.2545 115.788 53.2565V97.2856C116.032 97.2876 116.268 97.3055 116.513 97.3055C117.562 97.3045 118.587 97.2565 119.617 97.2185Z" fill="#A2DED7"/>
</svg>
